<svg width="40" height="61" viewBox="0 0 40 61" fill="none" xmlns="http://www.w3.org/2000/svg">
<path d="M16.1484 12.8008C18.3931 12.3886 20.6967 12.4067 22.9336 12.8154C28.523 13.8359 34.1765 17.0999 36.4258 22.6221C38.589 27.9307 37.3697 33.7888 33.7959 38.1318L33.7969 38.1328C30.1488 42.5692 24.9595 45.6884 19.374 46.9854H19.373C18.2966 47.2335 17.2108 47.3917 16.1279 47.5137L16.1094 47.5283L15.9902 47.5303L15.8633 47.5449L15.8428 47.5322C15.3641 47.5402 14.8778 47.5485 14.3916 47.5518C14.3493 48.0247 14.2522 48.4971 14.1074 49.3115C13.9264 50.3294 13.6602 51.9432 13.3027 54.8711C13.2323 55.4479 13.1132 56.0121 12.9375 56.5059C12.7641 56.993 12.5226 57.4491 12.1855 57.7715C11.9752 57.9727 11.6394 58.128 11.3174 58.2383C10.9768 58.3549 10.5767 58.4457 10.1826 58.4824C9.79631 58.5184 9.37346 58.5065 9.00977 58.3828C8.63167 58.2541 8.26352 57.9787 8.1582 57.4844L8.13379 57.3701L8.16309 57.2559C9.12167 53.5328 9.24041 52.789 10.1416 49.0264V49.0254C10.1923 48.8153 10.3405 48.2088 10.4082 47.6396C10.4426 47.3504 10.4513 47.1058 10.4297 46.9395C10.4268 46.917 10.4201 46.8991 10.417 46.8838C10.2683 46.8375 10.1225 46.7861 10.0146 46.75L9.99121 46.7422L9.96973 46.7324C5.77848 44.862 3.81766 39.9009 5.58887 35.6699L5.70312 35.416C6.30314 34.1691 7.33602 33.2789 8.5127 32.998C9.79414 32.6923 11.162 33.1309 12.1895 34.4463C13.4193 36.0223 14.0183 37.9539 14.3008 39.9121C14.5831 41.8701 14.5544 43.8938 14.5 45.6729C14.4991 45.7056 14.4987 45.7354 14.498 45.7627C14.5381 45.7624 14.5828 45.7625 14.6338 45.7617L15.2627 45.7363C16.7264 45.645 18.1524 45.327 19.5664 44.8779H19.5674C20.7083 44.5167 21.8018 44.098 22.8184 43.5361C26.1691 41.6831 29.1303 39.4997 31.291 36.3818C34.3702 31.9421 35.285 25.8541 32.1826 21.2988C29.6955 17.6486 25.3828 15.1205 20.9795 14.4863C18.5926 14.1415 16.0055 14.546 13.8418 15.6016C11.3009 16.8412 9.12007 18.6664 7.88867 21.1738V21.1748C7.45949 22.0468 7.19054 22.9485 7.10547 23.8857L7.08105 24.2891C7.04693 25.3068 7.09371 26.2651 7.43066 27.1484L7.50195 27.3242L7.50684 27.3359L7.51074 27.3477C7.53669 27.4174 7.55231 27.4607 7.57227 27.5107C7.59017 27.5556 7.60482 27.5863 7.61816 27.6094C7.63989 27.6469 7.65541 27.6612 7.68066 27.6738C7.79641 27.7314 7.96648 27.8556 8.02539 28.085C8.08724 28.3261 7.98717 28.5269 7.89258 28.6455L7.8916 28.6475C7.77343 28.7942 7.61661 28.8709 7.49902 28.9121C7.37421 28.9558 7.2418 28.9773 7.11914 28.9863C6.87983 29.0039 6.60239 28.9769 6.37109 28.8906L6.34375 28.8799L6.31836 28.8662C6.21715 28.8143 6.12559 28.7515 6.0459 28.6865C6.0499 28.6897 6.05216 28.692 6.05273 28.6924C6.04904 28.6896 6.04385 28.6849 6.04102 28.6826C6.04028 28.682 6.03918 28.6815 6.03809 28.6807L6.02051 28.666L6.00488 28.6504C6.01584 28.6612 6.02682 28.6698 6.03516 28.6768C6.02137 28.6655 5.99183 28.6417 5.96289 28.6064C5.95453 28.5963 5.943 28.5802 5.92969 28.5596L5.33398 27.6719L5.30273 27.625L5.28223 27.5732C4.61949 25.859 4.25877 24.1856 4.68359 22.2773C5.57762 18.2478 9.31717 14.8873 13.1162 13.627H13.1172C14.0917 13.3054 15.0989 12.9954 16.1484 12.8008ZM8.70996 34.7051C8.65625 34.723 8.55139 34.7814 8.40918 34.9658C8.08275 35.3892 7.82526 35.9728 7.67773 36.5352L7.62109 36.7744C7.22764 38.6456 7.46963 40.4509 8.32324 42.1895C8.84037 43.2437 9.59558 44.0936 10.6309 44.7412C10.8194 43.2715 10.9163 41.8008 10.9053 40.3174V40.3164C10.8933 38.5413 10.5463 36.9128 9.56641 35.4385C9.30646 35.0485 9.06382 34.8015 8.87402 34.7207C8.80011 34.6893 8.75318 34.6906 8.70996 34.7051Z" fill="white" stroke="white"/>
<path d="M7.65723 0.854492C7.9408 0.832999 8.19889 0.882292 8.44336 1.07031C9.5592 1.9252 10.591 2.85417 11.5166 3.87988L11.9072 4.3252L11.915 4.33496L12.1709 4.69434L12.1895 4.66992C12.2523 4.5858 12.2795 4.53189 12.2783 4.47461L12.2773 4.4375L12.293 4.40527C12.3021 4.3866 12.3108 4.36757 12.3203 4.34668C12.3296 4.32632 12.3396 4.30383 12.3506 4.28125L12.3613 4.26074L12.377 4.24316C12.478 4.13727 12.5453 4.00981 12.585 3.86719L12.5908 3.84473L12.6035 3.8252C12.6885 3.69461 12.7712 3.56681 12.8535 3.43652L12.8711 3.4082L12.8984 3.39062C13.0173 3.31337 13.0751 3.20085 13.1758 3.04395L13.1943 3.01465L13.2246 2.99609C13.2853 2.95958 13.3264 2.90849 13.3604 2.83691L13.3711 2.81348L13.3896 2.79492L14.249 1.94531L14.2578 1.93652L14.2676 1.92871C14.3184 1.89277 14.3695 1.85633 14.4209 1.81934C14.4723 1.78235 14.5251 1.74484 14.5771 1.70801L14.5918 1.69727L14.6084 1.69043C14.98 1.54485 15.3648 1.5001 15.7568 1.58301L15.9258 1.62598L15.9424 1.63184L15.958 1.64062C16.039 1.68893 16.099 1.75205 16.1279 1.83301C16.1557 1.91059 16.1478 1.98451 16.1367 2.03906C16.1311 2.06655 16.1235 2.09319 16.1172 2.11523C16.1104 2.13899 16.1051 2.15749 16.1006 2.17578C16.0922 2.21005 16.0925 2.22625 16.0938 2.23438L16.1035 2.24609L16.1006 2.26758L16.1084 2.30762L16.0938 2.32422C16.024 2.87446 16.0181 3.42237 16.0957 3.96875L16.1006 4.00293L16.0898 4.03613C16.0768 4.07613 16.0818 4.12204 16.1025 4.20996L16.1074 4.23047L16.1064 4.25195C16.0984 4.42533 16.0915 4.54978 16.1455 4.66504L16.1738 4.72559L16.1475 4.78613C16.1457 4.79027 16.1441 4.79696 16.1455 4.81055C16.1472 4.82658 16.1532 4.846 16.1631 4.87695L16.1719 4.90527L16.1689 4.93555C16.1592 5.05426 16.1617 5.13325 16.2012 5.20508L16.2139 5.22754L16.2178 5.25391C16.2239 5.29241 16.2271 5.33283 16.2295 5.3623L16.2305 5.37402L16.2295 5.38477C16.2219 5.49282 16.226 5.54957 16.2578 5.59766L16.3154 5.68555L16.2842 5.72559C16.2802 5.80574 16.2806 5.84846 16.292 5.87988L16.3086 5.90918L16.334 5.94336L16.3379 5.98633C16.3628 6.29398 16.4449 6.59208 16.5605 6.8877L16.6865 7.18262L16.6914 7.19336L16.6904 7.19434C16.7757 7.42921 16.8757 7.64085 17.0303 7.82129L17.1006 7.89648L17.1338 7.93066L17.1416 7.97656C17.1625 8.09459 17.1466 8.22667 17.0439 8.33789L17.0137 8.37109L16.9688 8.38184L16.5449 8.48047C15.1851 8.73627 13.8811 9.1168 12.6748 9.7373L12.666 9.74219L12.6562 9.74512C12.334 9.85998 12.0314 10.0133 11.7354 10.1875L11.6963 10.2109L11.6689 10.209L11.6279 10.2324L11.3164 10.4072L11.2988 10.417L11.2793 10.4219C11.1838 10.4459 11.1007 10.4965 11.0186 10.5674L10.9932 10.5898L10.96 10.5986C10.8843 10.6191 10.8208 10.6636 10.7373 10.7285C10.6629 10.7863 10.5656 10.8649 10.4443 10.9131C10.3441 10.9629 10.2854 10.9955 10.248 11.0459L10.2236 11.0801L10.1846 11.0957C10.087 11.1362 10.004 11.2008 9.92969 11.2832L9.90918 11.3066L9.88086 11.3193C9.75416 11.3775 9.64985 11.4601 9.56641 11.5635L9.55273 11.5801L9.53516 11.5928C8.94574 12.0013 8.44321 12.4895 8.00391 13.0361L7.98047 13.0645L7.94629 13.0791C7.83966 13.1251 7.73253 13.1367 7.63965 13.1406C7.53588 13.145 7.47133 13.1413 7.38965 13.1494L7.34766 13.1533L7.30957 13.1348C7.20432 13.0839 7.0962 13.0381 6.98242 12.9873C6.87088 12.9375 6.75566 12.8837 6.64648 12.8213C6.42714 12.6958 6.22044 12.5286 6.0957 12.2646L6.09277 12.2578L6.08984 12.25C6.07775 12.2149 6.06801 12.1889 6.05566 12.165L6.04688 12.1475L6.04199 12.127C5.99066 11.8834 5.89491 11.6535 5.76172 11.4326L5.75 11.4131L5.74414 11.3916C5.71257 11.2629 5.66497 11.1511 5.58691 11.0537L5.57129 11.0332L5.5625 11.0088C5.53904 10.9414 5.51201 10.8758 5.48242 10.8115V10.8506L5.20215 10.3613C4.78888 9.63995 4.22536 9.02417 3.55371 8.48438L3.54297 8.47559C3.53639 8.46922 3.52925 8.4619 3.51953 8.45312C3.51048 8.44496 3.49828 8.43444 3.4873 8.42383L3.48047 8.41699L3.47363 8.4082C3.19063 8.04247 2.79667 7.78101 2.3916 7.47656C2.05758 7.2253 1.70393 6.97631 1.36816 6.70508L1.04004 6.42578C0.984297 6.37531 0.903076 6.29931 0.868164 6.20117C0.848742 6.14626 0.842923 6.08447 0.860352 6.02051C0.877263 5.95875 0.912889 5.90397 0.958008 5.85547L0.979492 5.83203L1.00977 5.81934C1.28721 5.70205 1.57726 5.71608 1.83008 5.73047C3.32547 5.81098 4.80526 5.98341 6.27637 6.22461C6.88077 6.32278 7.47501 6.45838 8.07617 6.63867C8.07214 6.60889 8.0693 6.58026 8.06445 6.55176C8.06317 6.54975 8.06171 6.54719 8.05957 6.54395C8.05619 6.5388 8.05097 6.53064 8.0459 6.52246L8.02539 6.48926L8.02344 6.4502C8.02019 6.37646 8.02252 6.33933 8.0166 6.28809C8.01177 6.24636 8.00294 6.21667 7.98535 6.19141L7.96191 6.1582L7.95801 6.11719C7.93367 5.79942 7.87851 5.48967 7.78418 5.18555L7.77832 5.16699L7.77734 5.14746C7.76779 4.90959 7.72964 4.68099 7.65234 4.45898L7.64258 4.43164L7.64453 4.40234C7.64996 4.29458 7.64636 4.25065 7.61816 4.21289L7.59082 4.17676L7.58887 4.13086C7.57951 3.93403 7.54201 3.74408 7.46875 3.5625L7.45801 3.53516V3.50684C7.45801 3.3738 7.42315 3.24246 7.36035 3.1123L7.34766 3.08789L7.3457 3.06055C7.33142 2.8948 7.30176 2.74281 7.2334 2.60645L7.21777 2.57715L7.2168 2.54395C7.21389 2.43152 7.21188 2.38947 7.18164 2.35156L7.15039 2.31152L7.14941 2.26172C7.14875 2.23606 7.1486 2.20531 7.14844 2.18555C7.14825 2.1631 7.14826 2.14503 7.14648 2.12891C7.14308 2.09833 7.13585 2.07939 7.12402 2.06348L7.09473 2.02441L7.09375 1.97461C7.09249 1.84876 7.07837 1.73882 7.07031 1.59473C7.06279 1.45994 7.06341 1.3127 7.10156 1.16211L7.11133 1.11914L7.14355 1.08984C7.28018 0.960568 7.44637 0.872417 7.65527 0.854492H7.65723ZM8.80566 2.42188V2.42285C9.31039 3.98058 9.50579 5.58645 9.72363 7.16797L9.72949 7.27051C9.72647 7.36962 9.69624 7.45984 9.63672 7.53711C9.56082 7.63545 9.44935 7.69717 9.33203 7.7373L9.33105 7.73633C8.85379 7.90222 8.3931 7.8267 7.96777 7.65039V7.65137C6.42741 7.01776 4.78092 6.79425 3.11035 6.56738L3.18164 6.61328C4.14271 7.18965 5.01872 7.8552 5.80859 8.62402C6.60654 9.39811 7.18858 10.2902 7.59961 11.252C9.86831 9.20167 12.7045 8.3233 15.708 7.82617C15.0161 6.50728 14.8955 5.10031 14.8594 3.6709C14.3842 4.42951 14.0042 5.22999 13.5996 6.03711C13.4249 6.38644 13.0577 6.57556 12.6934 6.6084C12.3742 6.6371 12.0303 6.54842 11.7881 6.31543L11.6914 6.20703C11.4868 5.94234 11.2958 5.66096 11.1377 5.36523C10.5576 4.27891 9.75321 3.33912 8.84277 2.46094V2.45996C8.82824 2.44589 8.81532 2.42945 8.80176 2.41406L8.80566 2.42188Z" fill="white" stroke="white" stroke-width="0.3"/>
</svg>
